<svg width="211" height="165" viewBox="0 0 211 165" fill="none" xmlns="http://www.w3.org/2000/svg">
<path d="M105.424 46.7631C98.8211 46.7631 89.0908 39.4653 89.0908 30.0825V17.5722C89.0908 8.18935 91.8709 0.891602 105.424 0.891602C118.977 0.891602 121.757 8.18935 121.757 17.5722V30.0825C121.757 39.4653 112.027 46.7631 105.424 46.7631Z" fill="#FCFCFC"/>
<path d="M132.499 164.567H206.957C210.084 164.567 211.474 161.439 209.389 159.006C193.404 143.716 163.564 125.068 148.968 119.16L132.499 164.567Z" fill="#FCFCFC"/>
<path d="M138.494 59.9697L83.6214 95.8154C69.0259 87.1276 51.5598 75.2602 41.1345 65.1824C39.0494 63.0973 40.4395 59.9697 43.5671 59.9697H138.494Z" fill="#FCFCFC"/>
<path d="M4.29805 164.566H132.53L169.019 64.4826C169.714 62.05 168.323 59.6174 165.196 59.9649H138.437L83.1831 96.1061L43.5669 121.822L43.5659 121.823C40.7861 123.56 38.0064 125.297 35.2266 127.382L34.8791 127.73C26.1913 133.637 18.1985 140.24 10.9008 147.885C7.77317 151.36 4.64555 155.183 1.51795 159.353C-0.219608 161.438 1.51796 164.566 4.29805 164.566Z" fill="#FD9A00"/>
</svg>
